# AST/ASF file generated using VICON BodyLanguage
# -----------------------------------------------
:version 1.10
:name VICON
:units
  mass 1.0
  length 0.45
  angle deg
:documentation
   .ast/.asf automatically generated from VICON data using
   VICON BodyBuilder and BodyLanguage model FoxedUp or BRILLIANT.MOD
:root
   order TX TY TZ RX RY RZ
   axis XYZ
   position 0 0 0  
   orientation 0 0 0 
:bonedata
  begin
     id 1 
     name lhipjoint
     direction 0.575328 -0.747301 0.332475 
     length 2.40933 
     axis 0 0 0  XYZ
  end
  begin
     id 2 
     name lfemur
     direction 0.34202 -0.939693 0  
     length 7.31453  
     axis 0 0 20  XYZ
    dof rx ry rz
    limits (-160.0 20.0)
           (-70.0 70.0)
           (-60.0 70.0)
  end
  begin
     id 3 
     name ltibia
     direction 0.34202 -0.939693 0   
     length 7.82185   
     axis 0 0 20   XYZ
    dof rx
    limits (-10.0 170.0)
  end
  begin
     id 4 
     name lfoot
     direction 0.0795993 -0.218697 0.972541   
     length 2.19173   
     axis -90 7.62852e-016 20   XYZ
    dof rx rz
    limits (-45.0 90.0)
           (-70.0 20.0)
  end
  begin
     id 5 
     name ltoes
     direction 1.53537e-011 -4.21894e-011 1   
     length 1.10023   
     axis -90 7.62852e-016 20   XYZ
    dof rx
    limits (-90.0 20.0)
  end
  begin
     id 6 
     name rhipjoint
     direction -0.513884 -0.783789 0.348708   
     length 2.29716  
     axis 0 0 0  XYZ 
  end
  begin
     id 7 
     name rfemur
     direction -0.34202 -0.939693 0   
     length 7.59573   
     axis 0 0 -20   XYZ
    dof rx ry rz
    limits (-160.0 20.0)
           (-70.0 70.0)
           (-70.0 60.0)
  end
  begin
     id 8 
     name rtibia
     direction -0.34202 -0.939693 0   
     length 7.66402   
     axis 0 0 -20   XYZ
    dof rx
    limits (-10.0 170.0)
 end
 begin
     id 9 
     name rfoot
     direction -0.137793 -0.378584 0.915253   
     length 2.27056  
     axis -90 -7.62852e-016 -20   XYZ
    dof rx rz
    limits (-45.0 90.0)
           (-20.0 70.0)
  end
  begin
     id 10 
     name rtoes
     direction -1.53493e-011 -4.22159e-011 1   
     length 1.11766   
     axis -90 -7.62852e-016 -20   XYZ
    dof rx
    limits (-90.0 20.0)
  end
  begin
     id 11 
     name lowerback
     direction -0.00732775 0.998356 -0.05685   
     length 2.16513   
     axis 0 0 0   XYZ
    dof rx ry rz
    limits (-20.0 45.0)
           (-30.0 30.0)
           (-30.0 30.0)
  end
  begin
     id 12 
     name upperback
     direction 0.0218081 0.999627 -0.0164647   
     length 2.16755   
     axis 0 0 0   XYZ
    dof rx ry rz
    limits (-20.0 45.0)
           (-30.0 30.0)
           (-30.0 30.0)
  end
  begin
     id 13 
     name thorax
     direction 0.02365 0.999661 0.0108914   
     length 2.16932   
     axis 0 0 0   XYZ
    dof rx ry rz
    limits (-20.0 45.0)
           (-30.0 30.0)
           (-30.0 30.0)
  end
  begin
     id 14 
     name lowerneck
     direction -0.0523929 0.978385 0.200044   
     length 1.63877   
     axis 0 0 0   XYZ
    dof rx ry rz
    limits (-20.0 45.0)
           (-30.0 30.0)
           (-30.0 30.0)
  end
  begin
     id 15 
     name upperneck
     direction 0.0448674 0.981321 -0.187074   
     length 1.69014   
     axis 0 0 0   XYZ
    dof rx ry rz
    limits (-20.0 45.0)
           (-30.0 30.0)
           (-30.0 30.0)
  end
  begin
     id 16
     name head
     direction 0.0199089 0.996118 -0.0857429  
     length 1.70094  
     axis 0 0 0   XYZ
    dof rx ry rz
    limits (-20.0 45.0)
           (-30.0 30.0)
           (-30.0 30.0)
  end
  begin
     id 17 
     name lclavicle
     direction 0.940366 0.30191 -0.156722  
     length 3.37521  
     axis 0 0 0   XYZ
    dof ry rz
    limits (-20.0 10.0)
           (0.0 20.0)
  end
  begin
     id 18 
     name lhumerus
     direction 1 -4.4897e-011 -1.7911e-027   
     length 5.25287   
     axis 180 -30 -90   XYZ
    dof rx ry rz
    limits (-60.0 90.0)
           (-90.0 90.0)
           (-90.0 90.0)
  end
  begin
     id 19
     name lradius
     direction 1 -4.48951e-011 1.04424e-027   
     length 3.51014   
     axis 180 -30 -90   XYZ
    dof rx
    limits (-10.0 170.0)
  end
  begin
     id 20
     name lwrist
     direction 1 -4.48997e-011 -9.5942e-028   
     length 1.75507   
     axis 8.48502e-016 90 90   XYZ
    dof ry
    limits (-180.0 0.0)
 end
  begin
     id 21 
     name lhand
     direction 1 -4.48831e-011 -1.90777e-027   
     length 0.706179   
     axis 1.22306e-015 90 90   XYZ
    dof rx rz
    limits (-90.0 90.0)
           (-45.0 45.0)
  end
  begin
     id 22 
     name lfingers
     direction 1 -4.49108e-011 -3.85244e-027   
     length 0.569339   
     axis 2.44611e-015 90 90   XYZ
    dof rx
    limits (0.0 90.0)
  end
  begin
     id 23
     name lthumb
     direction 0.707107 -6.34953e-011 0.707107   
     length 0.817461   
     axis -90 45 -1.62303e-014   XYZ
    dof rx rz
    limits (-45.0 45.0)
           (-45.0 45.0)
  end
  begin
     id 24 
     name rclavicle
     direction -0.905329 0.382405 -0.184787   
     length 3.30787  
     axis 0 0 0   XYZ 
    dof ry rz
    limits (-10.0 20.0)
           (-20.0 0.0)
  end
  begin
     id 25 
     name rhumerus
     direction -1 -4.48953e-011 -9.15316e-029  
     length 5.28721   
     axis 180 30 90   XYZ
    dof rx ry rz
    limits (-90.0 60.0)
           (-90.0 90.0)
           (-90.0 90.0)
  end
  begin
     id 26 
     name rradius
     direction -1 -4.48987e-011 9.37824e-028   
     length 3.50544   
     axis 180 30 90   XYZ
    dof rx
    limits (-10.0 170.0)
  end
  begin
     id 27 
     name rwrist
     direction -1 -4.48967e-011 -9.58414e-028   
     length 1.75272   
     axis 8.48502e-016 -90 -90   XYZ
    dof ry
    limits (-180.0 0.0)
  end
  begin
     id 28
     name rhand
     direction -1 -4.48904e-011 -1.91266e-027   
     length 0.884996   
     axis 1.22306e-015 -90 -90   XYZ
    dof rx rz
    limits (-90.0 90.0)
           (-45.0 45.0)
  end
  begin
     id 29
     name rfingers
     direction -1 -4.4909e-011 -3.85015e-027   
     length 0.713507   
     axis 2.44611e-015 -90 -90   XYZ
    dof rx
    limits (0.0 90.0)
  end
  begin
     id 30
     name rthumb
     direction -0.707107 -6.34853e-011 0.707107   
     length 1.02446   
     axis -90 -45 1.62303e-014   XYZ
    dof rx rz
    limits (-45.0 45.0)
           (-45.0 45.0)
  end
:hierarchy
  begin
    root lhipjoint rhipjoint lowerback
    lhipjoint lfemur
    lfemur ltibia
    ltibia lfoot
    lfoot ltoes
    rhipjoint rfemur
    rfemur rtibia
    rtibia rfoot
    rfoot rtoes
    lowerback upperback
    upperback thorax
    thorax lowerneck lclavicle rclavicle
    lowerneck upperneck
    upperneck head
    lclavicle lhumerus
    lhumerus lradius
    lradius lwrist
    lwrist lhand lthumb
    lhand lfingers
    rclavicle rhumerus
    rhumerus rradius
    rradius rwrist
    rwrist rhand rthumb
    rhand rfingers
  end

#!OML:ASF F:\twosubjects\two\Thursday\Session 1\justin.ASF
:FULLY-SPECIFIED
:DEGREES
83
root -7.99356 18.2427 3.57048 1.47358 21.0586 -3.49817
lowerback 0.91355 2.76348 0.0116671
upperback 1.91049 3.66499 4.48289
thorax 1.15782 1.81501 4.60953
lowerneck -14.4836 14.4908 1.51346
upperneck 18.9951 20.4031 -2.90929
head 8.75648 9.45539 1.24119
rclavicle -3.30976e-014 -1.59028e-015
rhumerus -36.5502 -30.6736 -63.8699
rradius 24.1077
rwrist 6.22842
rhand -21.9693 13.5206
rfingers 7.12502
rthumb 4.43845 -16.4129
lclavicle -3.30976e-014 -1.59028e-015
lhumerus -26.5118 13.0186 85.7867
lradius 26.4528
lwrist -13.065
lhand -4.46446 38.0051
lfingers 7.12502
lthumb 21.3079 66.8538
rfemur -14.4248 -5.25093 26.1607
rtibia 26.2714
rfoot -14.254 -11.5367
rtoes -7.99184
lfemur -15.6033 -6.22344 -9.85398
ltibia 58.7842
lfoot 4.44007 -11.4186
ltoes -14.8603
84
root -7.99197 18.2548 3.70954 1.35296 20.9296 -3.62816
lowerback 0.915784 2.91305 0.0934113
upperback 1.94844 3.86375 4.54987
thorax 1.18069 1.91507 4.63321
lowerneck -14.8534 14.3021 1.08793
upperneck 19.126 20.2016 -2.70211
head 8.79306 9.34024 1.36579
rclavicle -3.16068e-014 1.82882e-014
rhumerus -35.7933 -29.854 -64.256
rradius 24.3055
rwrist 5.79197
rhand -22.1868 13.5416
rfingers 7.12502
rthumb 4.22844 -16.3962
lclavicle -3.16068e-014 1.82882e-014
lhumerus -26.6069 13.735 85.7514
lradius 26.2589
lwrist -13.8955
lhand -4.50548 37.5335
lfingers 7.12502
lthumb 21.2685 66.3866
rfemur -13.7825 -5.07069 26.3913
rtibia 26.1137
rfoot -14.7247 -11.5254
rtoes -6.43383
lfemur -16.4941 -5.77382 -9.78967
ltibia 59.4556
lfoot 2.85571 -9.80606
ltoes -16.5181
85
root -7.9877 18.2629 3.8433 1.31209 20.8348 -3.57061
lowerback 0.914301 2.99003 0.0516193
upperback 1.9701 3.96582 4.50221
thorax 1.19622 1.96545 4.60731
lowerneck -15.0519 14.2055 0.922116
upperneck 19.2553 20.0464 -2.40276
head 8.81703 9.27799 1.47857
rclavicle 8.96519e-014 -6.36111e-015
rhumerus -35.0067 -29.2028 -64.7157
rradius 24.3489
rwrist 5.57225
rhand -21.9421 13.4724
rfingers 7.12502
rthumb 4.46469 -16.4606
lclavicle 8.96519e-014 -6.36111e-015
lhumerus -26.6924 14.1288 85.6161
lradius 25.9969
lwrist -14.271
lhand -4.19603 37.9779
lfingers 7.12502
lthumb 21.5657 66.7972
rfemur -13.1326 -5.03797 26.4328
rtibia 25.9142
rfoot -15.1725 -11.5318
rtoes -6.08943
lfemur -17.4045 -5.37709 -9.99233
ltibia 59.9612
lfoot 2.30097 -8.62737
ltoes -15.0346
86
root -7.98467 18.2715 3.97454 1.53277 20.7539 -3.03016
lowerback 0.84106 3.00601 -0.486744
upperback 1.98056 3.98584 4.34112
thorax 1.22146 1.96852 4.74701
lowerneck -14.7023 14.1833 1.09383
upperneck 18.9677 19.9767 -2.52827
head 8.68864 9.26478 1.36833
rclavicle 1.49089e-014 -3.10104e-014
rhumerus -34.1433 -28.7358 -65.1164
rradius 24.166
rwrist 5.84243
rhand -21.6174 13.3509
rfingers 7.12502
rthumb 4.7782 -16.5752
lclavicle 1.49089e-014 -3.10104e-014
lhumerus -27.024 14.3093 85.4196
lradius 26.1583
lwrist -14.452
lhand -3.00027 38.7633
lfingers 7.12502
lthumb 22.7137 67.4464
rfemur -12.5678 -5.16707 25.9913
rtibia 25.6625
rfoot -15.6123 -11.4696
rtoes -5.97719
lfemur -18.3959 -5.0795 -10.7215
ltibia 60.3041
lfoot 0.194202 -7.24637
ltoes -19.9463
87
root -7.98401 18.2736 4.10457 1.51176 20.7047 -3.26176
lowerback 0.790878 3.10292 -0.244051
upperback 1.92944 4.11558 4.30722
thorax 1.20512 2.03742 4.57543
lowerneck -14.4964 14.0778 1.28129
upperneck 18.7176 19.8075 -2.71419
head 8.60515 9.19285 1.23966
rclavicle -1.18277e-014 -4.37326e-014
rhumerus -33.5328 -28.6294 -65.378
rradius 24.0899
rwrist 6.1478
rhand -21.2946 13.0635
rfingers 7.12502
rthumb 5.08995 -16.8554
lclavicle -1.18277e-014 -4.37326e-014
lhumerus -27.2815 14.5985 85.1701
lradius 26.1823
lwrist -14.9419
lhand -2.98294 38.6931
lfingers 7.12502
lthumb 22.7303 67.3742
rfemur -12.0778 -5.23467 26.361
rtibia 25.43
rfoot -16.002 -11.3728
rtoes -5.81635
lfemur -19.4413 -4.71183 -10.5638
ltibia 60.5278
lfoot 0.241707 -6.44869
ltoes -16.3312
88
root -7.98071 18.2652 4.22849 1.19913 20.6564 -4.04361
lowerback 0.902599 3.26589 0.541722
upperback 1.92784 4.3353 4.42107
thorax 1.17224 2.15747 4.24474
lowerneck -15.1947 13.9269 1.03918
upperneck 19.1252 19.613 -2.38219
head 8.80038 9.08416 1.42046
rclavicle 1.13407e-013 -1.35174e-014
rhumerus -32.8965 -28.9229 -65.4529
rradius 24.1134
rwrist 6.53192
rhand -21.0116 13.0304
rfingers 7.12502
rthumb 5.36318 -16.8817
lclavicle 1.13407e-013 -1.35174e-014
lhumerus -27.2303 14.3567 85.2353
lradius 26.0041
lwrist -14.624
lhand -4.01885 38.3623
lfingers 7.12502
lthumb 21.7359 67.1619
rfemur -11.4895 -5.16629 27.2794
rtibia 25.2657
rfoot -16.3996 -11.3152
rtoes -4.93659
lfemur -20.4553 -4.40861 -9.85691
ltibia 60.6226
lfoot -1.60934 -5.19176
ltoes -18.2449
89
root -7.97363 18.2533 4.35155 1.18705 20.5563 -4.10583
lowerback 0.946703 3.3427 0.568699
upperback 2.0274 4.43556 4.45082
thorax 1.24282 2.2067 4.26134
lowerneck -15.7591 13.9086 0.862644
upperneck 19.4498 19.6197 -2.21709
head 8.97413 9.06358 1.55403
rclavicle 2.09718e-014 1.59028e-015
rhumerus -31.7838 -28.8097 -65.7035
rradius 24.1183
rwrist 6.78314
rhand -20.7692 12.9551
rfingers 7.12502
rthumb 5.59714 -16.951
lclavicle 2.09718e-014 1.59028e-015
lhumerus -26.9008 14.7727 85.304
lradius 25.5928
lwrist -14.4745
lhand -4.43095 37.7837
lfingers 7.12502
lthumb 21.3401 66.6286
rfemur -10.9599 -5.19284 27.4637
rtibia 25.1234
rfoot -16.7371 -11.3158
rtoes -4.24847
lfemur -21.4459 -4.25576 -9.97002
ltibia 60.561
lfoot -2.03957 -4.38716
ltoes -14.3069
90
root -7.96593 18.24 4.47954 1.35448 20.5034 -3.91283
lowerback 0.859215 3.32681 0.342982
upperback 2.02833 4.41198 4.41244
thorax 1.28048 2.19163 4.35377
lowerneck -15.5764 13.9083 0.960019
upperneck 19.2526 19.6532 -2.53265
head 8.92118 9.06413 1.42656
rclavicle -2.97183e-014 -2.14687e-014
rhumerus -30.8611 -28.1052 -66.1724
rradius 24.2523
rwrist 6.56349
rhand -20.5878 12.7907
rfingers 7.12502
rthumb 5.77228 -17.1107
lclavicle -2.97183e-014 -2.14687e-014
lhumerus -26.8703 15.8863 85.0345
lradius 25.2875
lwrist -15.1347
lhand -3.89996 37.2339
lfingers 7.12502
lthumb 21.85 66.0203
rfemur -10.5719 -5.55408 27.4086
rtibia 25.0231
rfoot -16.9645 -11.2178
rtoes -5.44331
lfemur -22.394 -4.1637 -10.3032
ltibia 60.3381
lfoot -2.82441 -3.57221
ltoes -9.99009
91
root -7.95511 18.2196 4.60776 1.26344 20.308 -4.18348
lowerback 0.867402 3.43843 0.688602
upperback 1.94305 4.56384 4.4167
thorax 1.20358 2.27336 4.15986
lowerneck -15.3494 13.7749 0.948573
upperneck 19.1492 19.4911 -2.65013
head 8.85582 8.98612 1.34902
rclavicle 1.97791e-014 -1.51076e-014
rhumerus -30.3264 -27.3897 -66.5859
rradius 24.4175
rwrist 6.15104
rhand -20.6189 12.9345
rfingers 7.12502
rthumb 5.74234 -16.9677
lclavicle 1.97791e-014 -1.51076e-014
lhumerus -27.3992 15.8602 84.8957
lradius 25.5396
lwrist -14.8026
lhand -3.67167 37.0549
lfingers 7.12502
lthumb 22.0692 65.8155
rfemur -10.0946 -5.74013 27.7913
rtibia 25.0227
rfoot -17.4415 -11.0791
rtoes -6.35236
lfemur -23.1275 -3.96765 -10.144
ltibia 59.9353
lfoot -3.93775 -2.9862
ltoes -15.0254
92
root -7.94542 18.1926 4.73054 1.03104 19.9228 -4.65059
lowerback 1.04223 3.68743 1.30208
upperback 1.86618 4.90521 4.35687
thorax 1.06039 2.45291 3.73838
lowerneck -15.1075 13.6814 1.29389
upperneck 19.203 19.2949 -2.68177
head 8.86693 8.91715 1.25528
rclavicle 1.42628e-013 5.56597e-015
rhumerus -29.8479 -27.034 -66.9783
rradius 24.5848
rwrist 5.9654
rhand -20.7679 12.7599
rfingers 7.12502
rthumb 5.59846 -17.1462
lclavicle 1.42628e-013 5.56597e-015
lhumerus -27.7762 15.1347 84.8664
lradius 25.681
lwrist -13.7697
lhand -4.60746 36.6877
lfingers 7.12502
lthumb 21.1705 65.5518
rfemur -9.53546 -5.51107 28.3642
rtibia 25.0411
rfoot -18.0347 -11.1433
rtoes -6.53062
lfemur -23.705 -3.53729 -9.83334
ltibia 59.3584
lfoot -5.16284 -2.54392
ltoes -18.1455
93
root -7.93486 18.1767 4.84825 1.05778 19.6882 -4.61284
lowerback 1.22095 3.79771 1.39588
upperback 1.83715 5.06012 4.20342
thorax 0.943829 2.53215 3.51208
lowerneck -15.0563 13.7029 1.59905
upperneck 19.1494 19.2777 -2.80837
head 8.88401 8.91744 1.16981
rclavicle 9.93923e-017 -1.74931e-014
rhumerus -29.1667 -26.2767 -67.5545
rradius 24.943
rwrist 5.35472
rhand -20.8909 12.4542
rfingers 7.12502
rthumb 5.47969 -17.4549
lclavicle 9.93923e-017 -1.74931e-014
lhumerus -27.8426 14.7454 84.812
lradius 25.7829
lwrist -13.0549
lhand -4.94664 36.8913
lfingers 7.12502
lthumb 20.8447 65.7915
rfemur -9.06967 -5.36537 28.4034
rtibia 25.0043
rfoot -18.3632 -11.1808
rtoes -6.9207
lfemur -24.4321 -3.35167 -10.0695
ltibia 58.5899
lfoot -5.99458 -1.99322
ltoes -18.2815
94
root -7.9181 18.1778 4.97229 1.26646 19.6017 -4.20441
lowerback 1.33298 3.77356 1.10399
upperback 1.92835 5.02683 4.09091
thorax 0.961506 2.51196 3.55414
lowerneck -16.0824 13.7188 1.19009
upperneck 19.4776 19.4147 -2.7714
head 9.13524 8.91363 1.3451
rclavicle -3.91606e-014 -1.51076e-014
rhumerus -28.0232 -25.1668 -68.1952
rradius 25.1974
rwrist 4.65158
rhand -20.7984 12.0755
rfingers 7.12502
rthumb 5.56895 -17.8313
lclavicle -3.91606e-014 -1.51076e-014
lhumerus -27.789 15.0463 84.7738
lradius 26.052
lwrist -12.8816
lhand -4.40334 36.8352
lfingers 7.12502
lthumb 21.3666 65.6771
rfemur -8.64684 -5.5103 28.0205
rtibia 24.9583
rfoot -18.7424 -10.9882
rtoes -7.07121
lfemur -25.2255 -3.50869 -10.6661
ltibia 57.6102
lfoot -6.50535 -1.61542
ltoes -14.8166
95
root -7.90659 18.1696 5.09801 1.22748 19.4686 -4.20905
lowerback 1.51248 3.79957 1.06445
upperback 1.9367 5.06755 4.16687
thorax 0.857321 2.53243 3.64068
lowerneck -16.3375 13.6911 1.0993
upperneck 19.5391 19.5095 -3.18479
head 9.24264 8.89474 1.2658
rclavicle 7.58364e-014 1.11319e-014
rhumerus -27.1478 -24.4174 -68.481
rradius 25.4424
rwrist 4.6975
rhand -20.6944 11.4602
rfingers 7.12502
rthumb 5.66943 -18.444
lclavicle 7.58364e-014 1.11319e-014
lhumerus -28.0791 15.9188 84.6228
lradius 26.2183
lwrist -13.3193
lhand -3.76945 36.4167
lfingers 7.12502
lthumb 21.9753 65.1885
rfemur -8.1252 -5.65103 28.0905
rtibia 24.9571
rfoot -19.1828 -10.8847
rtoes -7.30622
lfemur -25.7967 -3.36493 -10.8237
ltibia 56.4528
lfoot -7.29922 -1.43675
ltoes -14.194
96
root -7.8981 18.1463 5.21719 1.10974 19.3126 -4.62928
lowerback 1.55603 3.84643 1.3749
upperback 1.75887 5.14183 4.3226
thorax 0.65912 2.57426 3.61612
lowerneck -15.1463 13.6576 1.4975
upperneck 18.989 19.4716 -3.82306
head 8.9556 8.89629 0.899891
rclavicle 8.49804e-014 2.70347e-014
rhumerus -26.9602 -23.5277 -68.6546
rradius 26.0936
rwrist 4.41138
rhand -20.784 11.3587
rfingers 7.12502
rthumb 5.58291 -18.5478
lclavicle 8.49804e-014 2.70347e-014
lhumerus -28.7248 16.5111 84.4459
lradius 26.3375
lwrist -13.4156
lhand -3.41188 37.2113
lfingers 7.12502
lthumb 22.3186 65.9423
rfemur -7.71263 -5.61654 28.6353
rtibia 24.9787
rfoot -19.5694 -11.0067
rtoes -7.23892
lfemur -26.3419 -3.04888 -10.5406
ltibia 55.1263
lfoot -8.08616 -1.27105
ltoes -15.2824
97
root -7.88603 18.133 5.3318 1.31336 19.0798 -4.73349
lowerback 1.50507 3.96364 1.6366
upperback 1.62211 5.30283 4.19126
thorax 0.574608 2.65748 3.331
lowerneck -15.0842 13.5522 1.51358
upperneck 18.9701 19.3031 -3.75535
head 8.92767 8.82821 0.890522
rclavicle 4.53229e-014 1.90833e-014
rhumerus -26.4842 -22.7795 -69.1915
rradius 26.5496
rwrist 3.40589
rhand -20.9098 11.5091
rfingers 7.12502
rthumb 5.46139 -18.4005
lclavicle 4.53229e-014 1.90833e-014
lhumerus -28.8687 16.3537 84.3768
lradius 26.4353
lwrist -12.9462
lhand -3.25915 37.8387
lfingers 7.12502
lthumb 22.4652 66.5521
rfemur -7.59038 -5.42998 28.8579
rtibia 25.0405
rfoot -20.1522 -11.09
rtoes -7.02523
lfemur -27.0509 -2.94182 -10.5479
ltibia 53.6226
lfoot -8.50872 -1.08677
ltoes -13.2162
